<?xml version="1.0" standalone="no"?>
<!DOCTYPE svg PUBLIC "-//W3C//DTD SVG 20010904//EN"
 "http://www.w3.org/TR/2001/REC-SVG-20010904/DTD/svg10.dtd">
<svg version="1.0" xmlns="http://www.w3.org/2000/svg"
 width="1280.000000pt" height="1242.000000pt" viewBox="0 0 1280.000000 1242.000000"
 preserveAspectRatio="xMidYMid meet">
<metadata>
Created by potrace 1.15, written by Peter Selinger 2001-2017
</metadata>
<g transform="translate(0.000000,1242.000000) scale(0.100000,-0.100000)"
fill="#fff" stroke="none">
<path d="M6356 12388 c-55 -309 -68 -706 -52 -1612 l9 -499 -164 6 c-94 4
-232 17 -324 31 -88 14 -226 35 -308 47 l-147 22 -133 -63 c-642 -304 -1405
-529 -2382 -704 -104 -19 -191 -39 -193 -44 -8 -24 -117 -192 -169 -260 -31
-40 -99 -119 -152 -174 -189 -199 -392 -363 -941 -760 -118 -85 -265 -194
-326 -242 l-111 -86 -6 -73 c-6 -88 -43 -189 -132 -361 -131 -255 -184 -414
-192 -581 -5 -102 -8 -115 -45 -189 -21 -43 -65 -117 -98 -165 -62 -91 -213
-267 -271 -315 l-34 -29 -1 -526 c0 -400 -4 -573 -17 -721 -31 -367 -76 -635
-146 -885 l-20 -70 83 -85 c221 -227 374 -448 527 -765 223 -463 363 -964 468
-1675 l36 -245 70 -8 c102 -11 263 -44 402 -83 390 -108 814 -303 1718 -790
242 -130 507 -270 590 -311 169 -85 133 -82 325 -29 308 84 786 118 1353 97
644 -23 1160 -73 2056 -197 l324 -44 71 53 c741 561 1352 1543 1812 2912 46
138 111 344 144 459 33 115 62 212 65 214 3 3 5 -8 5 -24 0 -16 7 -148 15
-294 8 -146 21 -404 30 -575 22 -438 52 -937 76 -1235 10 -140 22 -295 26
-345 l6 -90 62 -60 c158 -154 293 -159 478 -19 34 26 63 48 64 49 2 1 -13 145
-32 321 -70 650 -245 2501 -245 2600 0 22 3 21 63 -15 428 -261 1230 -460
2121 -526 l88 -7 -6 39 c-16 98 -67 583 -86 803 -55 672 -40 1255 45 1716 l15
81 -59 124 c-100 208 -168 433 -187 624 -6 55 -14 78 -39 115 -45 62 -105 186
-150 305 -118 318 -144 395 -149 437 -18 156 -221 448 -487 703 -57 55 -260
240 -449 411 -401 361 -394 355 -406 376 -5 9 -103 49 -219 91 -518 185 -823
316 -1605 687 -223 105 -472 222 -555 260 l-150 68 -275 -19 c-721 -49 -969
-44 -1537 27 -51 7 -53 8 -53 38 0 94 52 1022 58 1027 8 8 337 62 507 84 372
48 652 64 1435 85 217 6 422 16 486 25 250 34 424 109 572 249 53 50 146 165
139 172 -2 2 -44 -5 -93 -16 -360 -78 -835 -76 -1389 6 -126 18 -537 87 -715
119 -217 39 -564 92 -710 110 -74 8 -154 18 -178 21 l-43 5 -47 97 c-35 73
-55 101 -78 115 l-32 17 -6 -32z m554 -319 c176 -16 397 -45 715 -95 430 -67
731 -110 900 -129 209 -23 701 -31 868 -13 84 9 126 10 124 3 -2 -5 -34 -34
-73 -63 -126 -95 -279 -157 -501 -202 -242 -48 -537 -65 -1323 -75 -475 -6
-690 -14 -900 -36 -107 -11 -282 -36 -310 -44 -13 -4 -21 20 -43 132 -42 214
-35 339 29 466 43 86 27 81 224 73 96 -3 227 -11 290 -17z m-1045 -1795 c237
-25 436 -48 443 -50 8 -2 12 -32 12 -103 l0 -100 -35 -7 c-83 -15 -296 24
-441 81 -135 54 -453 224 -419 225 6 0 204 -20 440 -46z m-445 -13 c167 -117
416 -218 720 -292 l95 -23 -55 -9 c-266 -41 -405 -67 -655 -123 -321 -72 -559
-121 -890 -183 -515 -95 -654 -111 -1050 -118 -311 -5 -477 4 -700 38 l-80 12
232 48 c631 129 1346 336 2063 598 135 50 249 90 255 90 5 1 34 -16 65 -38z
m1245 -61 c327 -20 747 -32 960 -25 261 7 580 23 615 31 58 13 5 -9 -65 -27
-362 -93 -897 -162 -1468 -189 -202 -10 -220 -9 -248 7 -26 15 -30 22 -25 47
3 16 6 61 6 102 l0 73 33 -5 c17 -2 104 -8 192 -14z m2272 -263 c859 -422
1260 -596 1700 -739 73 -24 132 -46 133 -49 0 -16 -251 -34 -455 -33 -351 1
-533 28 -1450 210 -897 178 -1312 278 -1820 441 -153 49 -448 154 -458 163 -4
4 77 10 180 13 321 11 738 61 1058 127 125 26 426 104 480 124 22 8 52 13 67
11 15 -2 269 -123 565 -268z m-2928 -304 c-730 -737 -1133 -1116 -1605 -1509
-1102 -919 -2183 -1507 -3414 -1858 -68 -20 -127 -36 -131 -36 -3 0 5 64 17
143 73 443 141 1031 179 1537 l6 85 617 184 c1936 579 2283 708 4182 1555 228
101 419 185 424 185 5 1 -118 -128 -275 -286z m136 267 c-11 -5 -141 -61 -290
-124 -148 -62 -533 -227 -855 -366 -322 -138 -688 -295 -815 -347 -455 -187
-1034 -386 -1840 -633 -236 -73 -602 -185 -813 -250 -210 -64 -382 -114 -381
-111 0 3 167 148 371 321 204 173 453 388 552 476 178 159 479 458 587 583
l55 64 108 -22 c212 -43 360 -54 636 -48 321 7 565 36 1010 122 102 19 262 49
355 65 94 17 406 82 695 145 289 62 545 118 570 123 58 13 81 13 55 2z m727
-161 c350 -143 649 -217 1528 -378 1575 -289 1680 -305 2020 -305 219 0 259 4
385 39 17 5 38 -23 139 -182 443 -696 761 -1122 1030 -1383 51 -49 54 -60 29
-116 -21 -45 -9 -44 -203 -13 -260 42 -619 141 -960 264 -613 222 -1884 782
-2705 1192 -659 330 -1098 607 -1497 946 -53 45 -97 85 -97 88 -1 3 47 -19
107 -49 59 -31 160 -77 224 -103z m-588 -25 c-225 -623 -662 -1329 -1495
-2414 -600 -783 -806 -1043 -1022 -1295 -532 -619 -1060 -1098 -1571 -1425
l-69 -44 -20 24 c-49 62 -172 242 -348 512 -374 575 -539 786 -787 1009 l-93
84 53 17 c622 198 980 337 1428 556 916 448 1753 1036 2690 1892 214 196 721
685 1010 974 149 150 266 260 268 252 2 -7 -18 -71 -44 -142z m105 -41 c7
-777 -462 -2429 -1337 -4713 -159 -414 -562 -1413 -576 -1427 -2 -3 -249 115
-548 263 -299 147 -622 303 -718 346 -339 154 -646 265 -892 323 l-117 28 129
93 c427 307 826 673 1306 1199 323 354 801 933 978 1185 60 85 265 364 456
620 388 521 473 639 617 855 207 311 391 640 506 905 61 142 148 378 168 460
13 51 14 52 20 25 4 -17 7 -90 8 -162z m505 -132 c382 -310 841 -586 1458
-875 424 -199 872 -394 1116 -486 90 -34 288 -114 440 -177 536 -224 709 -295
867 -355 414 -157 782 -255 1146 -303 l47 -6 -30 -76 c-66 -169 -114 -414
-138 -693 -5 -69 -17 -285 -25 -482 -14 -340 -22 -448 -32 -448 -11 0 -313
173 -508 290 -756 456 -1631 1080 -2750 1964 -788 623 -1134 930 -1364 1215
-73 90 -510 665 -527 693 -4 7 34 -27 86 -75 52 -49 148 -132 214 -186z m-252
-136 c248 -628 558 -1183 1305 -2335 788 -1216 1371 -2069 1905 -2789 71 -95
127 -175 124 -178 -2 -3 -64 -18 -138 -33 -450 -96 -855 -217 -1774 -530 -306
-105 -560 -187 -564 -183 -8 9 -66 217 -110 391 -156 624 -413 2152 -609 3622
-103 772 -283 2310 -280 2399 0 9 19 -38 43 -104 24 -66 68 -183 98 -260z m65
112 c98 -147 212 -278 437 -502 691 -689 1720 -1519 3036 -2451 539 -381 1102
-743 1453 -935 l98 -53 -33 -32 c-73 -71 -1543 -1348 -1599 -1389 l-61 -45
-18 23 c-146 188 -539 750 -950 1357 -139 206 -398 589 -575 850 -177 261
-364 540 -414 618 -743 1159 -1183 1941 -1413 2512 -47 117 -108 287 -108 299
0 3 23 -36 50 -87 27 -51 71 -125 97 -165z m-216 -63 c179 -1667 447 -3582
698 -4984 84 -471 144 -752 216 -1013 14 -54 24 -101 21 -105 -3 -3 -97 4
-209 16 -505 55 -978 82 -1747 102 -239 7 -550 15 -692 18 l-256 7 33 80 c17
44 92 224 165 400 868 2100 1371 3632 1615 4920 41 219 89 540 107 720 6 68
13 123 15 121 2 -2 17 -129 34 -282z m4799 -771 c471 -432 694 -667 753 -793
28 -60 31 -75 35 -195 6 -205 12 -204 -164 -29 -168 167 -254 267 -401 464
-171 230 -601 899 -547 849 16 -14 162 -147 324 -296z m-10300 -1082 c-13
-205 -41 -453 -76 -681 -29 -188 -114 -663 -120 -669 -8 -9 -75 149 -95 224
-27 104 -36 291 -20 421 32 257 113 526 258 855 l58 133 3 -55 c2 -30 -1 -132
-8 -228z m11324 -446 c21 -49 64 -141 97 -203 l59 -114 0 -98 c0 -120 20 -232
65 -359 60 -168 -19 -27 -165 294 -84 185 -90 206 -120 400 -24 151 -50 246
-92 331 l-31 62 23 32 23 32 52 -143 c28 -79 69 -184 89 -234z m-196 185 c70
-243 96 -420 95 -655 0 -347 -84 -643 -260 -914 -55 -84 -134 -189 -143 -190
-11 -2 13 737 30 944 32 377 98 662 201 868 18 37 36 64 40 60 4 -5 21 -55 37
-113z m202 -686 c13 -19 62 -119 109 -222 116 -249 133 -282 186 -346 l44 -55
-19 -143 c-34 -260 -43 -460 -37 -858 6 -418 30 -733 91 -1230 8 -63 13 -116
12 -118 -2 -1 -61 87 -133 195 -366 555 -590 1028 -708 1493 l-35 135 74 75
c123 127 188 227 256 398 74 183 130 464 130 645 0 37 2 67 4 67 2 0 14 -16
26 -36z m-11658 -219 l103 -220 -1 -195 c-1 -300 -45 -502 -186 -865 -73 -186
-460 -946 -474 -932 -3 2 2 36 10 74 38 178 109 587 136 773 48 343 55 431 55
705 -1 261 -10 355 -48 500 l-14 50 118 113 c64 62 134 137 154 168 20 30 38
54 40 52 2 -2 50 -102 107 -223z m380 -563 c355 -377 594 -683 845 -1083 73
-117 187 -319 182 -324 -2 -2 -63 36 -135 83 -450 298 -748 648 -937 1102 -62
148 -144 401 -129 399 4 0 82 -80 174 -177z m-198 36 c17 -126 90 -327 177
-483 171 -310 520 -650 952 -930 l77 -50 0 -50 c0 -150 -62 -526 -135 -809
-79 -310 -231 -772 -385 -1171 -109 -283 -292 -763 -325 -855 -21 -58 -42
-109 -45 -113 -4 -5 -10 25 -14 65 -33 355 -127 806 -242 1160 -181 559 -412
1001 -733 1404 l-41 50 81 135 c262 434 497 1065 596 1602 10 53 21 97 24 97
4 0 10 -24 13 -52z m10862 -538 c-48 -188 -143 -399 -251 -555 -67 -96 -264
-291 -358 -354 -157 -105 -350 -186 -537 -225 -74 -15 -290 -39 -297 -33 -1 2
34 35 80 74 95 81 213 188 603 543 402 366 774 681 782 660 2 -5 -8 -54 -22
-110z m98 -12 c3 -18 26 -94 50 -168 134 -412 310 -788 621 -1328 62 -108 112
-199 110 -200 -8 -8 -236 114 -327 174 -108 71 -235 193 -290 275 -89 135
-153 305 -184 492 -17 98 -20 107 -40 107 -17 0 -25 -9 -35 -37 -67 -209 -235
-380 -447 -457 -143 -51 -372 -75 -577 -61 l-110 8 85 28 c140 47 354 160 470
247 267 202 478 499 620 874 18 48 36 85 40 83 4 -3 10 -19 14 -37z m-51 -806
c14 -178 69 -356 147 -476 116 -178 248 -269 640 -442 164 -73 165 -73 182
-116 9 -24 17 -47 17 -52 1 -10 -197 -2 -369 15 -580 55 -1228 237 -1716 482
l-149 75 3 48 c1 26 4 49 6 51 2 2 50 -3 107 -11 312 -45 519 -24 718 71 82
39 108 58 191 142 66 65 113 124 148 182 29 48 52 92 52 98 0 6 4 11 9 11 4 0
11 -35 14 -78z m-9381 -178 c397 -76 783 -238 1542 -646 142 -76 307 -164 367
-194 61 -30 107 -58 105 -63 -6 -9 -183 -59 -291 -83 -39 -8 -134 -13 -275
-13 -197 0 -224 3 -325 27 -451 107 -847 386 -1237 872 -54 67 -98 124 -98
129 0 9 43 3 212 -29z m-162 -100 c191 -262 457 -515 726 -691 187 -122 394
-213 599 -261 97 -23 131 -26 290 -27 115 0 202 5 240 14 101 22 217 61 288
97 37 19 70 34 73 34 8 0 4 -355 -6 -520 -33 -530 -95 -985 -261 -1930 -99
-558 -138 -782 -144 -807 -5 -20 -13 -17 -143 59 -682 401 -1535 806 -2167
1028 -145 52 -455 150 -472 150 -33 0 -31 7 229 700 421 1123 575 1646 639
2168 7 56 15 102 18 101 4 0 44 -52 91 -115z m8192 -154 l54 -20 63 -647 c144
-1482 212 -2203 214 -2288 2 -79 -1 -95 -21 -127 -56 -90 -201 -103 -348 -31
-29 14 -63 36 -75 49 -23 24 -19 -18 -69 744 -11 173 -49 756 -85 1294 -35
539 -62 983 -59 988 8 13 80 47 121 58 52 13 140 4 205 -20z m-426 -193 c-496
-746 -1300 -984 -2245 -665 -88 30 -118 44 -105 49 715 277 967 367 1323 475
352 106 605 165 883 203 186 26 192 27 197 24 2 -1 -22 -40 -53 -86z m43 -174
c-108 -581 -280 -1097 -550 -1651 -337 -694 -764 -1299 -1324 -1879 -75 -79
-140 -143 -144 -143 -4 0 7 102 25 228 107 732 138 1127 115 1452 -14 194 -32
313 -67 447 -14 54 -26 103 -27 110 -1 6 79 52 178 101 435 218 818 492 1273
914 149 139 388 388 494 515 23 29 46 53 49 53 3 0 -7 -66 -22 -147z m-4109
-324 c444 -18 880 -52 1350 -105 123 -14 225 -26 226 -27 1 -1 -10 -36 -24
-78 l-25 -76 -81 -46 c-111 -63 -313 -158 -416 -195 -289 -104 -521 -146 -805
-145 -360 1 -665 75 -1005 244 -212 106 -375 216 -599 406 l-26 23 50 1 c579
17 915 17 1355 -2z m-1157 -270 c313 -234 717 -392 1162 -453 596 -82 1160 56
1478 363 l49 46 -7 -125 c-7 -133 6 -404 30 -660 32 -324 103 -775 235 -1490
89 -485 133 -740 129 -745 -2 -2 -125 8 -274 21 -1135 100 -1625 133 -2125
141 -478 7 -930 -13 -1264 -58 -43 -6 -80 -8 -83 -5 -5 5 -1 32 107 656 197
1138 272 1737 287 2312 l6 247 91 -92 c50 -51 131 -122 179 -158z m2975 40
c231 -81 472 -119 745 -119 270 0 501 39 745 125 l97 34 -65 -60 c-344 -317
-693 -557 -1100 -756 -85 -41 -156 -76 -157 -77 0 0 14 -57 33 -126 94 -341
113 -726 59 -1198 -22 -187 -135 -945 -141 -939 -3 3 -145 618 -219 947 -140
626 -203 1056 -220 1505 -8 212 13 588 40 712 l5 22 46 -20 c25 -12 84 -34
132 -50z"/>
</g>
</svg>
